<?xml version="1.0" encoding="UTF-8" standalone="no"?>
<svg width="26px" height="30px" viewBox="0 0 26 30" version="1.1" xmlns="http://www.w3.org/2000/svg" xmlns:xlink="http://www.w3.org/1999/xlink" xmlns:sketch="http://www.bohemiancoding.com/sketch/ns">
    <!-- Generator: Sketch 3.0.4 (8053) - http://www.bohemiancoding.com/sketch -->
    <title>btn-menu</title>
    <desc>Created with Sketch.</desc>
    <defs></defs>
    <g id="design" stroke="none" stroke-width="1" fill="none" fill-rule="evenodd" sketch:type="MSPage">
        <g id="Desktop-HD" sketch:type="MSArtboardGroup" transform="translate(-1407.000000, -50.000000)" fill="#FFFFFF">
            <g id="menu-in" sketch:type="MSLayerGroup" transform="translate(1400.000000, 40.000000)">
                <g id="btn-menu" transform="translate(7.000000, 10.000000)" sketch:type="MSShapeGroup">
                    <path d="M4.25,-3.5 L4.25,21.5 L6.75,21.5 L6.75,-3.5 L4.25,-3.5 Z M11.75,-3.5 L11.75,21.5 L14.25,21.5 L14.25,-3.5 L11.75,-3.5 Z M19.25,-3.5 L19.25,21.5 L21.75,21.5 L21.75,-3.5 L19.25,-3.5 Z" id="Rectangle-14" transform="translate(13.000000, 9.000000) rotate(-90.000000) translate(-13.000000, -9.000000) "></path>
                    <path d="M1.67,22.44 L2.65,22.44 L3.92,25.96 L4.4,27.3 L4.44,27.3 L4.9,25.96 L6.16,22.44 L7.14,22.44 L7.14,29 L6.35,29 L6.35,25.39 C6.35,25.0966652 6.36166655,24.7733351 6.385,24.42 C6.40833345,24.0666649 6.4333332,23.7433348 6.46,23.45 L6.42,23.45 L5.89,24.91 L4.63,28.34 L4.16,28.34 L2.89,24.91 L2.37,23.45 L2.33,23.45 C2.3500001,23.7433348 2.3733332,24.0666649 2.4,24.42 C2.4266668,24.7733351 2.44,25.0966652 2.44,25.39 L2.44,29 L1.67,29 L1.67,22.44 Z M8.94,22.44 L12.72,22.44 L12.72,23.14 L9.77,23.14 L9.77,25.2 L12.26,25.2 L12.26,25.91 L9.77,25.91 L9.77,28.29 L12.82,28.29 L12.82,29 L8.94,29 L8.94,22.44 Z M14.21,22.44 L15.07,22.44 L17.44,26.56 L18.15,27.92 L18.19,27.92 C18.1699999,27.586665 18.1483335,27.2416684 18.125,26.885 C18.1016666,26.5283315 18.09,26.1766684 18.09,25.83 L18.09,22.44 L18.88,22.44 L18.88,29 L18.02,29 L15.64,24.87 L14.93,23.52 L14.89,23.52 C14.9166668,23.853335 14.9416666,24.1916649 14.965,24.535 C14.9883335,24.8783351 15,25.2233316 15,25.57 L15,29 L14.21,29 L14.21,22.44 Z M20.65,22.44 L21.48,22.44 L21.48,26.31 C21.48,26.7033353 21.5199996,27.033332 21.6,27.3 C21.6800004,27.566668 21.7883327,27.7799992 21.925,27.94 C22.0616674,28.1000008 22.2233324,28.2149996 22.41,28.285 C22.5966676,28.3550004 22.7966656,28.39 23.01,28.39 C23.2300011,28.39 23.4333324,28.3550004 23.62,28.285 C23.8066676,28.2149996 23.9699993,28.1000008 24.11,27.94 C24.2500007,27.7799992 24.3599996,27.566668 24.44,27.3 C24.5200004,27.033332 24.56,26.7033353 24.56,26.31 L24.56,22.44 L25.36,22.44 L25.36,26.29 C25.36,26.8166693 25.3000006,27.2599982 25.18,27.62 C25.0599994,27.9800018 24.8950011,28.2716656 24.685,28.495 C24.474999,28.7183345 24.2266681,28.8783328 23.94,28.975 C23.6533319,29.0716671 23.343335,29.12 23.01,29.12 C22.676665,29.12 22.3650015,29.0716671 22.075,28.975 C21.7849986,28.8783328 21.5350011,28.7183345 21.325,28.495 C21.114999,28.2716656 20.9500006,27.9800018 20.83,27.62 C20.7099994,27.2599982 20.65,26.8166693 20.65,26.29 L20.65,22.44 Z" id="MENU"></path>
                </g>
            </g>
        </g>
    </g>
</svg>