<?xml version="1.0" encoding="UTF-8" standalone="no"?>
<svg width="25px" height="30px" viewBox="0 0 25 30" version="1.1" xmlns="http://www.w3.org/2000/svg" xmlns:xlink="http://www.w3.org/1999/xlink" xmlns:sketch="http://www.bohemiancoding.com/sketch/ns">
    <!-- Generator: Sketch 3.0.4 (8053) - http://www.bohemiancoding.com/sketch -->
    <title>menu-close</title>
    <desc>Created with Sketch.</desc>
    <defs></defs>
    <g id="design" stroke="none" stroke-width="1" fill="none" fill-rule="evenodd" sketch:type="MSPage">
        <g id="Desktop-HD" sketch:type="MSArtboardGroup" transform="translate(-1088.000000, -50.000000)" fill="#FFFFFF">
            <g id="menu-out" sketch:type="MSLayerGroup" transform="translate(1080.000000, 0.000000)">
                <g id="menu-close" transform="translate(9.000000, 50.000000)" sketch:type="MSShapeGroup">
                    <path d="M11.5625,5.94117966 L17.2923673,0.211312382 L19.4136876,2.33263273 L13.6838203,8.0625 L19.7886876,14.1673673 L17.6673673,16.2886876 L11.5625,10.1838203 L5.45763273,16.2886876 L3.33631238,14.1673673 L9.44117966,8.0625 L3.71131238,2.33263273 L5.83263273,0.211312382 L11.5625,5.94117966 Z" id="Rectangle-17" transform="translate(11.500000, 8.250000) rotate(-90.000000) translate(-11.500000, -8.250000) "></path>
                    <path d="M-0.33,22.44 L0.65,22.44 L1.92,25.96 L2.4,27.3 L2.44,27.3 L2.9,25.96 L4.16,22.44 L5.14,22.44 L5.14,29 L4.35,29 L4.35,25.39 C4.35,25.0966652 4.36166655,24.7733351 4.385,24.42 C4.40833345,24.0666649 4.4333332,23.7433348 4.46,23.45 L4.42,23.45 L3.89,24.91 L2.63,28.34 L2.16,28.34 L0.89,24.91 L0.37,23.45 L0.33,23.45 C0.3500001,23.7433348 0.3733332,24.0666649 0.4,24.42 C0.4266668,24.7733351 0.44,25.0966652 0.44,25.39 L0.44,29 L-0.33,29 L-0.33,22.44 Z M6.94,22.44 L10.72,22.44 L10.72,23.14 L7.77,23.14 L7.77,25.2 L10.26,25.2 L10.26,25.91 L7.77,25.91 L7.77,28.29 L10.82,28.29 L10.82,29 L6.94,29 L6.94,22.44 Z M12.21,22.44 L13.07,22.44 L15.44,26.56 L16.15,27.92 L16.19,27.92 C16.1699999,27.586665 16.1483335,27.2416684 16.125,26.885 C16.1016666,26.5283316 16.09,26.1766684 16.09,25.83 L16.09,22.44 L16.88,22.44 L16.88,29 L16.02,29 L13.64,24.87 L12.93,23.52 L12.89,23.52 C12.9166668,23.853335 12.9416666,24.191665 12.965,24.535 C12.9883335,24.8783351 13,25.2233316 13,25.57 L13,29 L12.21,29 L12.21,22.44 Z M18.65,22.44 L19.48,22.44 L19.48,26.31 C19.48,26.7033353 19.5199996,27.033332 19.6,27.3 C19.6800004,27.566668 19.7883327,27.7799992 19.925,27.94 C20.0616674,28.1000008 20.2233324,28.2149996 20.41,28.285 C20.5966676,28.3550003 20.7966656,28.39 21.01,28.39 C21.2300011,28.39 21.4333324,28.3550003 21.62,28.285 C21.8066676,28.2149996 21.9699993,28.1000008 22.11,27.94 C22.2500007,27.7799992 22.3599996,27.566668 22.44,27.3 C22.5200004,27.033332 22.56,26.7033353 22.56,26.31 L22.56,22.44 L23.36,22.44 L23.36,26.29 C23.36,26.8166693 23.3000006,27.2599982 23.18,27.62 C23.0599994,27.9800018 22.8950011,28.2716655 22.685,28.495 C22.474999,28.7183345 22.2266681,28.8783328 21.94,28.975 C21.6533319,29.0716671 21.343335,29.12 21.01,29.12 C20.676665,29.12 20.3650015,29.0716671 20.075,28.975 C19.7849986,28.8783328 19.5350011,28.7183345 19.325,28.495 C19.114999,28.2716655 18.9500006,27.9800018 18.83,27.62 C18.7099994,27.2599982 18.65,26.8166693 18.65,26.29 L18.65,22.44 Z" id="menu"></path>
                </g>
            </g>
        </g>
    </g>
</svg>