<?xml version="1.0" encoding="UTF-8" standalone="no"?>
<svg width="57px" height="30px" viewBox="0 0 57 30" version="1.1" xmlns="http://www.w3.org/2000/svg" xmlns:xlink="http://www.w3.org/1999/xlink" xmlns:sketch="http://www.bohemiancoding.com/sketch/ns">
    <!-- Generator: Sketch 3.1.1 (8761) - http://www.bohemiancoding.com/sketch -->
    <title>icon-menu</title>
    <desc>Created with Sketch.</desc>
    <defs></defs>
    <g id="design" stroke="none" stroke-width="1" fill="none" fill-rule="evenodd" sketch:type="MSPage">
        <g id="Desktop-HD" sketch:type="MSArtboardGroup" transform="translate(-1086.000000, -50.000000)" fill="#FFFFFF">
            <g id="menu-out" sketch:type="MSLayerGroup" transform="translate(1080.000000, 0.000000)">
                <g id="icon-menu" transform="translate(7.000000, 50.000000)" sketch:type="MSShapeGroup">
                    <path d="M13.5625,5.94117966 L19.2923673,0.211312382 L21.4136876,2.33263273 L15.6838203,8.0625 L21.7886876,14.1673673 L19.6673673,16.2886876 L13.5625,10.1838203 L7.45763273,16.2886876 L5.33631238,14.1673673 L11.4411797,8.0625 L5.71131238,2.33263273 L7.83263273,0.211312382 L13.5625,5.94117966 Z" id="Rectangle-17" transform="translate(13.500000, 8.250000) rotate(-90.000000) translate(-13.500000, -8.250000) "></path>
                    <path d="M31.67,22.44 L32.65,22.44 L33.92,25.96 L34.4,27.3 L34.44,27.3 L34.9,25.96 L36.16,22.44 L37.14,22.44 L37.14,29 L36.35,29 L36.35,25.39 C36.35,25.0966652 36.3616666,24.7733351 36.385,24.42 C36.4083335,24.0666649 36.4333332,23.7433348 36.46,23.45 L36.42,23.45 L35.89,24.91 L34.63,28.34 L34.16,28.34 L32.89,24.91 L32.37,23.45 L32.33,23.45 C32.3500001,23.7433348 32.3733332,24.0666649 32.4,24.42 C32.4266668,24.7733351 32.44,25.0966652 32.44,25.39 L32.44,29 L31.67,29 L31.67,22.44 Z M38.94,22.44 L42.72,22.44 L42.72,23.14 L39.77,23.14 L39.77,25.2 L42.26,25.2 L42.26,25.91 L39.77,25.91 L39.77,28.29 L42.82,28.29 L42.82,29 L38.94,29 L38.94,22.44 Z M44.21,22.44 L45.07,22.44 L47.44,26.56 L48.15,27.92 L48.19,27.92 C48.1699999,27.586665 48.1483335,27.2416684 48.125,26.885 C48.1016666,26.5283316 48.09,26.1766684 48.09,25.83 L48.09,22.44 L48.88,22.44 L48.88,29 L48.02,29 L45.64,24.87 L44.93,23.52 L44.89,23.52 C44.9166668,23.853335 44.9416666,24.191665 44.965,24.535 C44.9883335,24.8783351 45,25.2233316 45,25.57 L45,29 L44.21,29 L44.21,22.44 Z M50.65,22.44 L51.48,22.44 L51.48,26.31 C51.48,26.7033353 51.5199996,27.033332 51.6,27.3 C51.6800004,27.566668 51.7883327,27.7799992 51.925,27.94 C52.0616674,28.1000008 52.2233324,28.2149996 52.41,28.285 C52.5966676,28.3550003 52.7966656,28.39 53.01,28.39 C53.2300011,28.39 53.4333324,28.3550003 53.62,28.285 C53.8066676,28.2149996 53.9699993,28.1000008 54.11,27.94 C54.2500007,27.7799992 54.3599996,27.566668 54.44,27.3 C54.5200004,27.033332 54.56,26.7033353 54.56,26.31 L54.56,22.44 L55.36,22.44 L55.36,26.29 C55.36,26.8166693 55.3000006,27.2599982 55.18,27.62 C55.0599994,27.9800018 54.8950011,28.2716655 54.685,28.495 C54.474999,28.7183345 54.2266681,28.8783328 53.94,28.975 C53.6533319,29.0716671 53.343335,29.12 53.01,29.12 C52.676665,29.12 52.3650015,29.0716671 52.075,28.975 C51.7849986,28.8783328 51.5350011,28.7183345 51.325,28.495 C51.114999,28.2716655 50.9500006,27.9800018 50.83,27.62 C50.7099994,27.2599982 50.65,26.8166693 50.65,26.29 L50.65,22.44 Z" id="menu"></path>
                    <path d="M-0.26,25.72 C-0.26,25.1933307 -0.1866674,24.7200021 -0.04,24.3 C0.1066674,23.8799979 0.3099987,23.5233348 0.57,23.23 C0.8300013,22.9366652 1.13833155,22.7116674 1.495,22.555 C1.85166845,22.3983325 2.2399979,22.32 2.66,22.32 C3.060002,22.32 3.4099985,22.4016658 3.71,22.565 C4.0100015,22.7283341 4.2566657,22.9166656 4.45,23.13 L3.98,23.66 C3.8066658,23.4733324 3.61500105,23.3250005 3.405,23.215 C3.19499895,23.1049994 2.9500014,23.05 2.67,23.05 C2.3566651,23.05 2.0733346,23.111666 1.82,23.235 C1.5666654,23.3583339 1.3500009,23.5349988 1.17,23.765 C0.9899991,23.9950011 0.8500005,24.2733317 0.75,24.6 C0.6499995,24.9266683 0.6,25.2933313 0.6,25.7 C0.6,26.1133354 0.64833285,26.4849983 0.745,26.815 C0.84166715,27.1450016 0.9766658,27.4266655 1.15,27.66 C1.3233342,27.8933345 1.53499875,28.0733327 1.785,28.2 C2.03500125,28.3266673 2.3166651,28.39 2.63,28.39 C2.9500016,28.39 3.22833215,28.3266673 3.465,28.2 C3.70166785,28.0733327 3.9266656,27.8933345 4.14,27.66 L4.61,28.17 C4.3499987,28.4700015 4.0566683,28.7033325 3.73,28.87 C3.4033317,29.0366675 3.0300021,29.12 2.61,29.12 C2.1966646,29.12 1.81500175,29.0433341 1.465,28.89 C1.11499825,28.7366659 0.81166795,28.5150014 0.555,28.225 C0.29833205,27.9349985 0.09833405,27.5783354 -0.045,27.155 C-0.18833405,26.7316645 -0.26,26.253336 -0.26,25.72 L-0.26,25.72 Z M5.83,22.44 L6.66,22.44 L6.66,28.29 L9.53,28.29 L9.53,29 L5.83,29 L5.83,22.44 Z M12.85,29.12 C12.4366646,29.12 12.058335,29.0400008 11.715,28.88 C11.3716649,28.7199992 11.0766679,28.4916681 10.83,28.195 C10.5833321,27.8983318 10.3916673,27.5383354 10.255,27.115 C10.1183326,26.6916645 10.05,26.2166693 10.05,25.69 C10.05,25.1633307 10.1183326,24.6916687 10.255,24.275 C10.3916673,23.8583312 10.5833321,23.5050014 10.83,23.215 C11.0766679,22.9249985 11.3716649,22.7033341 11.715,22.55 C12.058335,22.3966659 12.4366646,22.32 12.85,22.32 C13.2633354,22.32 13.6416649,22.3983325 13.985,22.555 C14.328335,22.7116674 14.6249987,22.9349985 14.875,23.225 C15.1250012,23.5150014 15.3183326,23.8683312 15.455,24.285 C15.5916673,24.7016687 15.66,25.1699974 15.66,25.69 C15.66,26.2166693 15.5916673,26.6916645 15.455,27.115 C15.3183326,27.5383354 15.1250012,27.8983318 14.875,28.195 C14.6249987,28.4916681 14.328335,28.7199992 13.985,28.88 C13.6416649,29.0400008 13.2633354,29.12 12.85,29.12 L12.85,29.12 Z M12.85,28.39 C13.1433348,28.39 13.4083321,28.3266673 13.645,28.2 C13.8816678,28.0733327 14.0849991,27.8916678 14.255,27.655 C14.4250008,27.4183321 14.5566662,27.1350016 14.65,26.805 C14.7433338,26.4749983 14.79,26.1033354 14.79,25.69 C14.79,25.2833313 14.7433338,24.9166683 14.65,24.59 C14.5566662,24.2633317 14.4250008,23.9866678 14.255,23.76 C14.0849991,23.5333322 13.8816678,23.3583339 13.645,23.235 C13.4083321,23.111666 13.1433348,23.05 12.85,23.05 C12.5566652,23.05 12.2916678,23.111666 12.055,23.235 C11.8183321,23.3583339 11.6150008,23.5333322 11.445,23.76 C11.2749991,23.9866678 11.1433338,24.2633317 11.05,24.59 C10.9566662,24.9166683 10.91,25.2833313 10.91,25.69 C10.91,26.1033354 10.9566662,26.4749983 11.05,26.805 C11.1433338,27.1350016 11.2749991,27.4183321 11.445,27.655 C11.6150008,27.8916678 11.8183321,28.0733327 12.055,28.2 C12.2916678,28.3266673 12.5566652,28.39 12.85,28.39 L12.85,28.39 Z M17.09,27.57 C17.3233345,27.8166679 17.5983317,28.0149992 17.915,28.165 C18.2316682,28.3150007 18.5599983,28.39 18.9,28.39 C19.3333355,28.39 19.6699988,28.2916676 19.91,28.095 C20.1500012,27.8983323 20.27,27.6400016 20.27,27.32 C20.27,27.1533325 20.2416669,27.0116672 20.185,26.895 C20.128333,26.7783327 20.0516671,26.6783337 19.955,26.595 C19.8583328,26.5116662 19.743334,26.436667 19.61,26.37 C19.476666,26.303333 19.3333341,26.2333337 19.18,26.16 L18.24,25.75 C18.0866659,25.683333 17.9300008,25.6033338 17.77,25.51 C17.6099992,25.4166662 17.4666673,25.303334 17.34,25.17 C17.2133327,25.036666 17.1100004,24.8783342 17.03,24.695 C16.9499996,24.5116657 16.91,24.3000012 16.91,24.06 C16.91,23.8133321 16.9616661,23.5833344 17.065,23.37 C17.1683338,23.1566656 17.3116657,22.9716674 17.495,22.815 C17.6783342,22.6583325 17.8949987,22.5366671 18.145,22.45 C18.3950012,22.3633329 18.6699985,22.32 18.97,22.32 C19.3633353,22.32 19.726665,22.3949992 20.06,22.545 C20.393335,22.6950007 20.6766655,22.8899988 20.91,23.13 L20.46,23.67 C20.259999,23.4766657 20.0383345,23.3250005 19.795,23.215 C19.5516654,23.1049994 19.2766682,23.05 18.97,23.05 C18.6033315,23.05 18.3083344,23.1349991 18.085,23.305 C17.8616655,23.4750008 17.75,23.7099985 17.75,24.01 C17.75,24.1700008 17.7816663,24.3049994 17.845,24.415 C17.9083336,24.5250005 17.9933328,24.6216662 18.1,24.705 C18.2066672,24.7883337 18.3233327,24.8616663 18.45,24.925 C18.5766673,24.9883336 18.706666,25.0466664 18.84,25.1 L19.77,25.5 C19.9566676,25.5800004 20.1333325,25.6716661 20.3,25.775 C20.4666675,25.8783338 20.6099994,25.9983326 20.73,26.135 C20.8500006,26.2716673 20.9449996,26.4316657 21.015,26.615 C21.0850003,26.7983342 21.12,27.0099988 21.12,27.25 C21.12,27.5100013 21.0683338,27.7533322 20.965,27.98 C20.8616661,28.2066678 20.7133343,28.4049991 20.52,28.575 C20.3266657,28.7450008 20.0933347,28.8783328 19.82,28.975 C19.5466653,29.0716671 19.2366684,29.12 18.89,29.12 C18.4299977,29.12 18.0033353,29.0333342 17.61,28.86 C17.2166647,28.6866658 16.8766681,28.4500015 16.59,28.15 L17.09,27.57 Z M22.41,22.44 L26.19,22.44 L26.19,23.14 L23.24,23.14 L23.24,25.2 L25.73,25.2 L25.73,25.91 L23.24,25.91 L23.24,28.29 L26.29,28.29 L26.29,29 L22.41,29 L22.41,22.44 Z" id="CLOSE"></path>
                    <path d="M34.25,-3.5 L34.25,21.5 L36.75,21.5 L36.75,-3.5 L34.25,-3.5 Z M41.75,-3.5 L41.75,21.5 L44.25,21.5 L44.25,-3.5 L41.75,-3.5 Z M49.25,-3.5 L49.25,21.5 L51.75,21.5 L51.75,-3.5 L49.25,-3.5 Z" id="Rectangle-14" transform="translate(43.000000, 9.000000) rotate(-90.000000) translate(-43.000000, -9.000000) "></path>
                </g>
            </g>
        </g>
    </g>
</svg>