<?xml version="1.0" encoding="UTF-8" standalone="no"?>
<svg width="215px" height="54px" viewBox="0 0 215 54" version="1.1" xmlns="http://www.w3.org/2000/svg" xmlns:xlink="http://www.w3.org/1999/xlink" xmlns:sketch="http://www.bohemiancoding.com/sketch/ns">
    <!-- Generator: Sketch 3.0.4 (8053) - http://www.bohemiancoding.com/sketch -->
    <title>logo-cl</title>
    <desc>Created with Sketch.</desc>
    <defs></defs>
    <g id="design" stroke="none" stroke-width="1" fill="none" fill-rule="evenodd" sketch:type="MSPage">
        <g id="Desktop-HD" sketch:type="MSArtboardGroup" transform="translate(-1173.000000, -26.000000)" fill="#FFFFFF">
            <g id="menu-out" sketch:type="MSLayerGroup" transform="translate(1080.000000, 0.000000)">
                <g id="logo-cl" transform="translate(93.000000, 26.000000)" sketch:type="MSShapeGroup">
                    <g id="logo-copy-8">
                        <path d="M22.106492,34.3252178 C19.7128251,31.8076738 16.98738,30.5226409 13.999639,30.5226409 C11.4496368,30.5226409 9.26441688,31.4225141 7.50998756,33.1767415 C5.75903237,34.9432241 4.87139536,37.1491389 4.87139536,39.7297091 C4.87139536,41.5242033 5.26049651,43.1506278 6.03869882,44.5407043 C6.81863819,45.9500388 7.93209283,47.0529962 9.3477957,47.8478258 C10.7565503,48.6356525 12.3581185,49.0435717 14.0917031,49.0435717 C15.568203,49.0435717 16.9352682,48.7599541 18.1598946,48.2102261 C19.354991,47.6587474 20.685578,46.6520799 22.1030179,45.2462469 C22.2471938,45.3950586 25.2158272,48.5236061 25.3756366,48.6741685 C23.466609,50.5386918 21.6357491,51.8499856 19.9351686,52.5765369 C18.2067952,53.3153433 16.2091777,53.6987523 14.0065872,53.6987523 C9.93318449,53.6987523 6.54939409,52.3682005 3.95943953,49.770123 C1.36079967,47.1650427 0.051057391,43.7913936 0.051057391,39.7157033 C0.051057391,37.0808606 0.645131476,34.7121283 1.82459435,32.6655295 C3.0092684,30.6294352 4.72548242,28.9539903 6.92459877,27.7022212 C9.13413747,26.4609564 11.5417009,25.8341965 14.0778066,25.8341965 C16.2387077,25.8341965 18.3509711,26.2981389 20.3520627,27.2190208 C22.3236244,28.1258969 24.0346272,29.4319385 25.4746489,31.0933776 L22.106492,34.3252178 M32.5565247,47.6906391 L32.5565247,47.6906391 C31.5303951,46.6524664 31.0015166,45.3003502 31.0015166,43.6442571 C31.0015166,42.0363352 31.5356663,40.6958466 32.5758525,39.660996 C33.6248241,38.6195012 34.9514129,38.094601 36.5239917,38.094601 C38.1246836,38.094601 39.4706002,38.6145179 40.5020011,39.6410631 C41.536916,40.6626251 42.0552521,42.009758 42.0552521,43.6442571 C42.0552521,45.2721119 41.5263736,46.6258892 40.4668596,47.6723673 C39.4231593,48.7171843 38.0877851,49.2404233 36.5029068,49.2404233 C34.9197856,49.2404233 33.5931968,48.7171843 32.5565247,47.6906391 C32.5565247,47.6906391 33.5931968,48.7171843 32.5565247,47.6906391 L32.5565247,47.6906391 L32.5565247,47.6906391 L32.5565247,47.6906391 L32.5565247,47.6906391 Z M29.8431735,36.2153923 C27.6779368,38.2086593 26.5800225,40.7143342 26.5800225,43.6828844 C26.5800225,46.4498875 27.55047,48.8377086 29.4675713,50.7746108 C31.3863721,52.7029728 33.7266632,53.6987523 36.4306598,53.6987523 C38.2763796,53.6987523 39.9827357,53.2495413 41.5123378,52.3647835 C43.0419398,51.4885659 44.2656215,50.2536627 45.1510911,48.6993585 C46.0314621,47.1313901 46.4767463,45.4370277 46.4767463,43.6487239 C46.4767463,41.8706682 46.0399599,40.186554 45.1578894,38.6476221 C44.2775184,37.1086901 43.0419398,35.8737869 41.4681493,34.980489 C39.8977578,34.0837751 38.1998995,33.6362721 36.4170633,33.6362721 C33.9493053,33.6362721 31.736481,34.5073657 29.8431735,36.2153923 L29.8431735,36.2153923 L29.8431735,36.2153923 L29.8431735,36.2153923 L29.8431735,36.2153923 Z M48.6874933,26.9487787 L48.6874933,53.6987523 L53.1089875,53.6987523 L53.1089875,26.9487787 L48.6874933,26.9487787 M62.4051246,47.6906391 L62.4051246,47.6906391 C61.3684525,46.6524664 60.8466023,45.3003502 60.8466023,43.6442571 C60.8466023,42.0363352 61.3754808,40.6958466 62.4209382,39.660996 C63.4699098,38.6195012 64.7947415,38.094601 66.3638062,38.094601 C67.9732835,38.094601 69.3086576,38.6145179 70.3435726,39.6410631 C71.3732164,40.6626251 71.9003378,42.009758 71.9003378,43.6442571 C71.9003378,45.2721119 71.3697022,46.6258892 70.3154595,47.6723673 C69.2664879,48.7171843 67.9275996,49.2404233 66.3462354,49.2404233 C64.7631142,49.2404233 63.4365254,48.7171843 62.4051246,47.6906391 C62.4051246,47.6906391 63.4365254,48.7171843 62.4051246,47.6906391 L62.4051246,47.6906391 L62.4051246,47.6906391 L62.4051246,47.6906391 L62.4051246,47.6906391 Z M59.6877019,36.2153923 C57.5194365,38.2086593 56.4251082,40.7143342 56.4251082,43.6828844 C56.4251082,46.4498875 57.3970892,48.8377086 59.3104645,50.7746108 C61.2289375,52.7029728 63.5671297,53.6987523 66.2774614,53.6987523 C68.1194675,53.6987523 69.8238328,53.2495413 71.3548729,52.3647835 C72.8774166,51.4885659 74.1025885,50.2536627 74.9879069,48.6993585 C75.8715261,47.1313901 76.321832,45.4370277 76.321832,43.6487239 C76.321832,41.8706682 75.8766239,40.186554 74.9964033,38.6476221 C74.1144834,37.1086901 72.8774166,35.8737869 71.3106919,34.980489 C69.7388694,34.0837751 68.0413012,33.6362721 66.2604688,33.6362721 C63.7982301,33.6362721 61.5840845,34.5073657 59.6877019,36.2153923 L59.6877019,36.2153923 L59.6877019,36.2153923 L59.6877019,36.2153923 L59.6877019,36.2153923 Z M87.2552067,34.186121 L87.2552067,34.186121 C86.3986009,34.5398455 85.4246518,35.2035166 84.3551518,36.140361 L84.1757842,36.3032144 L84.1757842,34.1423432 L79.6379526,34.1423432 L79.6379526,53.6987523 L84.1757842,53.6987523 L84.1757842,45.8730367 C84.1757842,43.78221 84.2445139,42.4653744 84.3870021,41.8262188 C84.6585679,40.6249566 85.1514096,39.6670988 85.8504402,38.9841655 C86.5595288,38.2977299 87.4194873,37.9510099 88.4085234,37.9510099 C89.1695783,37.9510099 89.8199952,38.1593922 90.3463636,38.5761566 C90.8593213,39.0034277 91.2348197,39.6198188 91.4443613,40.4130722 C91.6505501,41.2098277 91.7511301,42.7508055 91.7511301,45.1515789 L91.7511301,53.6987523 L96.2185558,53.6987523 L96.2185558,40.7335255 C96.2185558,38.4991077 95.6771004,36.7812677 94.6042477,35.6553032 C93.3201771,34.3051966 91.7444247,33.6362721 89.9071645,33.6362721 C89.0052977,33.6362721 88.1168416,33.8201388 87.2552067,34.186121 M100.64005,33.6362721 L100.64005,53.6987523 L105.061544,53.6987523 L105.061544,33.6362721 L100.64005,33.6362721 M113.904532,43.6297464 C113.904532,42.0205971 114.424273,40.679092 115.463754,39.6462808 C116.49795,38.6069017 117.819324,38.094601 119.387354,38.094601 C120.98886,38.094601 122.3349,38.5921238 123.38319,39.6216509 C124.435004,40.6364002 124.958268,41.9762634 124.958268,43.6116846 C124.958268,45.2832295 124.435004,46.6510065 123.38319,47.6838176 C122.3349,48.7182708 120.999431,49.2404233 119.408496,49.2404233 C117.859846,49.2404233 116.540233,48.7034929 115.486658,47.6559038 C114.434844,46.6083148 113.904532,45.2503897 113.904532,43.6297464 C113.904532,43.6297464 113.904532,45.2503897 113.904532,43.6297464 L113.904532,43.6297464 L113.904532,43.6297464 L113.904532,43.6297464 L113.904532,43.6297464 Z M112.111135,36.4425598 L112.111135,36.4425598 C110.364811,38.323097 109.483038,40.7587429 109.483038,43.7067968 C109.483038,46.5267487 110.395811,48.92311 112.188635,50.8241435 C114.003847,52.7285932 116.163502,53.6987523 118.631432,53.6987523 C119.723315,53.6987523 120.758365,53.5057453 121.700415,53.106067 C122.637299,52.7234691 123.586238,52.074419 124.533455,51.1930773 L124.721177,51.0034863 L124.721177,53.2051326 L129.379762,53.2051326 L129.379762,34.1298918 L124.721177,34.1298918 L124.721177,36.4254795 L124.528289,36.2153923 C123.670627,35.364795 122.726854,34.7123289 121.721082,34.2767821 C120.717032,33.8480674 119.63376,33.6362721 118.486766,33.6362721 C115.993002,33.6362721 113.85057,34.5842269 112.111135,36.4425598 L112.111135,36.4425598 L112.111135,36.4425598 L112.111135,36.4425598 L112.111135,36.4425598 Z M133.801256,26.9487787 L133.801256,53.6987523 L138.22275,53.6987523 L138.22275,26.9487787 L133.801256,26.9487787 M150.381859,25.8341965 L150.381859,53.6987523 L162.540968,53.6987523 L162.540968,48.9536361 L155.195166,48.9536361 L155.195166,25.8341965 L150.381859,25.8341965 M179.056168,26.7641893 C178.299612,27.3806617 177.843557,28.2349165 177.714518,29.2970105 C177.649115,29.7655295 177.599621,31.3155175 177.59255,33.9047019 L177.59255,34.0279963 L175.805451,34.0279963 L175.805451,38.0121699 L177.59255,38.0121699 L177.59255,53.6987523 L182.377592,53.6987523 L182.377592,38.0121699 L185.541694,38.0121699 L185.541694,34.0279963 L182.377592,34.0279963 L182.389966,31.4159144 C182.389966,30.8012033 182.497792,30.4013769 182.715214,30.1970603 C183.021018,29.9258124 183.478841,29.7884271 184.088682,29.7884271 C184.525293,29.7884271 185.09271,29.8993921 185.753813,30.0790498 L185.753813,26.5158389 C184.500546,26.068456 183.344499,25.8341965 182.345774,25.8341965 C180.933418,25.8341965 179.823331,26.1459554 179.056168,26.7641893 M196.894558,36.9800188 C198.184045,36.9800188 199.337796,37.279966 200.315787,37.8709951 C201.295518,38.4664568 201.955053,39.254003 202.289171,40.1922615 L202.334416,40.3237655 L191.280681,40.3237655 L191.358989,40.180441 C191.919333,39.1417075 192.542324,38.4014436 193.198378,37.9744251 C194.258159,37.3198605 195.50588,36.9800188 196.894558,36.9800188 C196.894558,36.9800188 195.50588,36.9800188 196.894558,36.9800188 L196.894558,36.9800188 L196.894558,36.9800188 L196.894558,36.9800188 L196.894558,36.9800188 Z M189.661613,36.5142969 C187.803501,38.4238706 186.859186,40.8680566 186.859186,43.7717018 C186.859186,46.5950697 187.803501,48.9845989 189.668395,50.8651362 C191.524812,52.7422574 193.967823,53.6987523 196.941482,53.6987523 C198.850455,53.6987523 200.518687,53.3503148 201.90549,52.6705203 C203.260082,52.0043899 204.424793,50.9693258 205.403014,49.5960724 C205.153797,49.4850507 201.673226,47.8402211 201.54777,47.7804402 C200.250821,49.0307156 198.694482,49.6678096 196.902488,49.6678096 C195.374971,49.6678096 194.094975,49.2561751 193.113363,48.4226582 C192.135141,47.5976813 191.511249,46.4652597 191.290853,45.07151 L191.265422,44.938284 L206.733871,44.938284 C206.745738,44.7623572 206.75591,44.1269713 206.75591,44.1269713 C206.75591,40.9910346 205.814986,38.4238706 203.946702,36.5142969 C202.093675,34.6030152 199.648969,33.6362721 196.663443,33.6362721 C193.876274,33.6362721 191.511249,34.6030152 189.661613,36.5142969 L189.661613,36.5142969 L189.661613,36.5142969 L189.661613,36.5142969 L189.661613,36.5142969 Z M166.962463,33.6362721 L166.962463,53.6987523 L171.383957,53.6987523 L171.383957,33.6362721 L166.962463,33.6362721 M210.693511,50.2013034 L211.049177,50.2013034 C211.461001,50.2013034 211.796077,50.0601681 211.796077,49.7140966 C211.796077,49.4086257 211.580805,49.2075562 211.107207,49.2075562 C210.910655,49.2075562 210.772132,49.2249565 210.693511,49.2462234 L210.693511,50.2013034 L210.693511,50.2013034 L210.693511,50.2013034 L210.693511,50.2013034 Z M210.676664,52.0727962 L209.92602,52.0727962 L209.92602,48.7377497 C210.219913,48.6990825 210.633609,48.6372149 211.165237,48.6372149 C211.775485,48.6372149 212.052531,48.7377497 212.269674,48.9001519 C212.466227,49.0432206 212.602878,49.286824 212.602878,49.6116285 C212.602878,50.0195676 212.308985,50.2825046 211.934599,50.4062396 L211.934599,50.4449068 C212.249083,50.5473749 212.404453,50.8122453 212.505537,51.2588515 C212.602878,51.7673253 212.681499,51.9490612 212.739528,52.0727962 L211.953319,52.0727962 C211.855978,51.9490612 211.796077,51.6648572 211.696864,51.2588515 C211.640707,50.91278 211.442282,50.7484444 211.028586,50.7484444 L210.676664,50.7484444 L210.676664,52.0727962 L210.676664,52.0727962 L210.676664,52.0727962 L210.676664,52.0727962 Z M208.686804,50.3443721 C208.686804,51.8291928 209.768778,53.0066093 211.204547,53.0066093 C212.602878,53.0278762 213.664261,51.8291928 213.664261,50.3637057 C213.664261,48.8808183 212.602878,47.6821349 211.165237,47.6821349 C209.768778,47.6821349 208.686804,48.8808183 208.686804,50.3443721 C208.686804,50.3443721 208.686804,48.8808183 208.686804,50.3443721 L208.686804,50.3443721 L208.686804,50.3443721 L208.686804,50.3443721 L208.686804,50.3443721 Z M214.493525,50.3443721 C214.493525,52.2139315 213.037165,53.6987523 211.185828,53.6987523 C209.336363,53.6987523 207.861284,52.2139315 207.861284,50.3443721 C207.861284,48.4748127 209.336363,47.0112589 211.204547,47.0112589 C213.037165,47.0112589 214.493525,48.4748127 214.493525,50.3443721 L214.493525,50.3443721 L214.493525,50.3443721 L214.493525,50.3443721 L214.493525,50.3443721 Z" id="logo"></path>
                        <path d="M99.5346764,21.9348166 C99.5346764,24.0851124 101.26931,25.8341965 103.40184,25.8341965 C105.539302,25.8341965 107.272291,24.0851124 107.272291,21.9348166 C107.272291,19.7745734 105.539302,18.0321209 103.40184,18.0321209 C101.26931,18.0321209 99.5346764,19.7745734 99.5346764,21.9348166 Z M118.328447,21.3758676 C120.153079,21.3758676 121.642147,19.1218066 121.642147,16.3627558 C121.642147,13.5970163 120.153079,11.3446275 118.328447,11.3446275 C116.497361,11.3446275 115.009906,13.5970163 115.009906,16.3627558 C115.009906,19.1218066 116.497361,21.3758676 118.328447,21.3758676 Z M153.69798,5.77924167 C153.69798,8.84622413 154.937223,11.3446275 156.462203,11.3446275 C157.984026,11.3446275 159.224848,8.84622413 159.224848,5.77924167 C159.224848,2.70222546 158.040857,0.198805208 156.520613,0.198805208 C154.992476,0.198805208 153.69798,2.70222546 153.69798,5.77924167 Z M129.379762,8.55211699 C129.379762,11.9342379 130.613952,14.6883742 132.139598,14.6883742 C133.667043,14.6883742 134.90663,11.9342379 134.90663,8.55211699 C134.90663,5.17518604 133.667043,2.42796967 132.139598,2.42796967 C130.613952,2.42796967 129.379762,5.17518604 129.379762,8.55211699 Z M165.857089,20.2621357 C165.857089,22.7162149 167.351778,24.7196143 169.177637,24.7196143 C171.005267,24.7196143 172.48933,22.7162149 172.48933,20.2621357 C172.48933,17.7978524 171.005267,15.8029564 169.177637,15.8029564 C167.351778,15.8029564 165.857089,17.7978524 165.857089,20.2621357 Z M141.538871,12.4600908 C141.538871,16.6858113 142.813728,20.2612854 144.303238,20.2612854 C145.805815,20.2612854 147.065739,16.6858113 147.065739,12.4600908 C147.065739,8.22732164 145.805815,4.65713413 144.303238,4.65713413 C142.813728,4.65713413 141.538871,8.22732164 141.538871,12.4600908 Z" id="logo-dots"></path>
                    </g>
                </g>
            </g>
        </g>
    </g>
</svg>